<svg width="94" height="27" viewBox="0 0 94 27" fill="none" xmlns="http://www.w3.org/2000/svg">
<path d="M69.9067 9.3103V11.81C69.9067 11.8556 69.8701 11.8952 69.8213 11.8952H69.5132C69.3729 11.8952 69.26 12.0079 69.26 12.1479V14.6354C69.26 14.6689 69.2539 14.7024 69.2386 14.7328L67.0178 19.9544C66.9904 20.0184 66.9904 20.0914 67.0178 20.1554L69.8701 26.5096C69.9281 26.6374 69.8701 26.7866 69.745 26.8445C69.7115 26.8597 69.6779 26.8658 69.6413 26.8658H67.0026C66.905 26.8658 66.8165 26.8079 66.7768 26.7196L65.4925 24.0251C65.4346 23.8972 65.2851 23.8394 65.157 23.8972C65.099 23.9216 65.0533 23.9673 65.0289 24.0251L63.8544 26.6983C63.8147 26.7897 63.7232 26.8506 63.6226 26.8506H60.9045C60.7642 26.8506 60.6513 26.7349 60.6544 26.5948C60.6544 26.5613 60.6605 26.5278 60.6757 26.4974L63.3968 20.3228C63.4304 20.2558 63.4304 20.1767 63.3968 20.1067L62.1796 17.7501C62.1156 17.6253 62.1613 17.473 62.2864 17.4091C62.323 17.3908 62.3627 17.3786 62.4023 17.3786H64.6597C64.7635 17.3786 64.855 17.3147 64.8916 17.2203L66.06 14.3309C66.0661 14.3005 66.0661 14.267 66.06 14.2366V12.1418C66.06 12.0018 65.9471 11.8891 65.8068 11.8891H65.3065C65.1722 11.8891 65.0624 11.9926 65.0533 12.1236L64.7848 16.2034C64.7787 16.3374 64.6658 16.4439 64.5316 16.4439H61.9447C61.8044 16.4439 61.6915 16.3313 61.6915 16.1912C61.6915 16.1851 61.6915 16.176 61.6915 16.1699L62.259 8.3421C62.2651 8.21118 62.3749 8.10767 62.5091 8.10767H65.0807C65.221 8.10767 65.3309 8.22032 65.3339 8.36037V8.80185C65.3339 8.9419 65.4468 9.05455 65.5871 9.05455H69.6352C69.7725 9.04238 69.8945 9.14285 69.9067 9.27986C69.9067 9.28899 69.9067 9.29813 69.9067 9.30726V9.3103Z" fill="#2D2D2D"/>
<path d="M50.4544 19.0621C50.5001 19.0195 50.5001 18.9495 50.4574 18.9038C50.4361 18.8825 50.4056 18.8672 50.3751 18.8703H50.3141C50.2408 18.8703 50.189 18.8703 50.189 18.7424V16.3554C50.189 16.2154 50.3019 16.1027 50.4422 16.1027H52.7881C52.8613 16.1027 52.9284 16.0723 52.9772 16.0175L53.2182 15.7526C53.3128 15.649 53.3036 15.4877 53.1968 15.3963C53.1511 15.3537 53.0901 15.3324 53.0291 15.3324H50.3568C50.2164 15.3324 50.1066 15.2197 50.1036 15.0797V12.7505C50.1036 12.6105 50.2164 12.4978 50.3568 12.4978H52.5623C52.7027 12.4978 52.8155 12.3852 52.8155 12.2451V12.0594C52.8155 11.9193 52.7027 11.8067 52.5623 11.8067H50.8327C50.6954 11.8067 50.5825 11.6971 50.5795 11.5601C50.5795 11.5601 50.5795 11.557 50.5795 11.554V9.22482C50.5795 9.08477 50.6923 8.97212 50.8327 8.97212H52.5623C52.6996 8.97212 52.8125 8.86251 52.8155 8.7255C52.8155 8.7255 52.8155 8.72246 52.8155 8.71941V8.36623C52.8155 8.22618 52.9284 8.11657 53.0687 8.11353H55.4909C55.6312 8.11353 55.741 8.22618 55.7441 8.36623V8.71941C55.7441 8.85947 55.8569 8.97212 55.9973 8.97212H57.2114C57.3517 8.97212 57.4646 9.08477 57.4646 9.22482V11.554C57.4646 11.691 57.3548 11.8036 57.2175 11.8067C57.2175 11.8067 57.2144 11.8067 57.2114 11.8067H56.0034C55.863 11.8067 55.7532 11.9193 55.7502 12.0594V12.2451C55.7502 12.3852 55.863 12.4948 56.0034 12.4978H57.1534C57.2663 12.4978 57.3639 12.4248 57.3975 12.3151L58.453 8.81075C58.4835 8.70419 58.5811 8.62807 58.694 8.62807H61.2229C61.3632 8.62807 61.4791 8.74377 61.4791 8.88382C61.4791 8.91123 61.4761 8.93863 61.4669 8.96298L60.4999 12.1781C60.4541 12.3121 60.5273 12.4582 60.6616 12.5009C60.689 12.51 60.7134 12.5131 60.7409 12.5131H60.9239C61.0642 12.5131 61.1771 12.6257 61.1771 12.7658V15.0949C61.1771 15.235 61.0642 15.3446 60.9239 15.3476H57.068C56.9948 15.3476 56.9216 15.3811 56.8758 15.439L56.6501 15.7039C56.5616 15.8104 56.5738 15.9687 56.6836 16.0601C56.7294 16.0997 56.7874 16.1179 56.8453 16.1179H60.9178C61.0581 16.1179 61.168 16.2306 61.171 16.3706V17.4637C61.171 17.5367 61.1375 17.6068 61.0825 17.6555L59.4352 19.0865C59.3315 19.1778 59.3193 19.3392 59.4139 19.4427C59.4657 19.5036 59.5451 19.534 59.6244 19.5279L60.9361 19.4092C61.0764 19.397 61.1985 19.4975 61.2107 19.6375C61.2107 19.6436 61.2107 19.6528 61.2107 19.6589V21.9911C61.2107 22.122 61.113 22.2285 60.9849 22.2438L59.4963 22.4082C59.3681 22.4204 59.2705 22.53 59.2705 22.6578V26.5946C59.2705 26.7346 59.1576 26.8473 59.0173 26.8473H52.422C52.2817 26.8473 52.1688 26.7346 52.1688 26.5946V24.3415C52.1688 24.2045 52.2786 24.0919 52.4159 24.0888C52.4159 24.0888 52.4189 24.0888 52.422 24.0888H55.9607C56.101 24.0888 56.2138 23.9762 56.2138 23.8361V22.9471C56.2138 22.807 56.101 22.6944 55.9607 22.6944C55.9515 22.6944 55.9454 22.6944 55.9362 22.6944L50.4635 23.2028C50.3232 23.215 50.2012 23.1145 50.189 22.9745C50.189 22.9654 50.189 22.9593 50.189 22.9501V20.7062C50.189 20.5753 50.2897 20.4687 50.4178 20.4566L54.652 20.0547C54.7099 20.0486 54.7618 20.0242 54.8045 19.9846L55.4512 19.3666C55.5519 19.2691 55.5549 19.1108 55.4573 19.0103C55.4085 18.9616 55.3444 18.9342 55.2743 18.9342H53.9412C53.8741 18.9342 53.81 18.9616 53.7612 19.0073L53.1328 19.6315C53.084 19.6802 53.0199 19.7045 52.9528 19.7045H50.0578C49.9968 19.7045 49.9449 19.6589 49.9419 19.598C49.9419 19.5645 49.9541 19.534 49.9755 19.5127L50.4452 19.056L50.4544 19.0621Z" fill="#2D2D2D"/>
<path d="M80.6641 12.5406H88.2509C88.3699 12.5406 88.4675 12.4462 88.4675 12.3274C88.4675 12.3 88.4614 12.2726 88.4522 12.2483L88.4126 12.1448C88.3729 12.0321 88.4278 11.9103 88.5407 11.8677C88.5651 11.8586 88.5895 11.8555 88.6139 11.8555H91.634C91.7285 11.8555 91.817 11.9073 91.8597 11.9925L93.2416 14.754C93.3057 14.8758 93.2568 15.0281 93.1348 15.0889C93.0982 15.1072 93.0586 15.1163 93.0159 15.1163H75.5117C75.3714 15.1163 75.2585 15.0037 75.2585 14.8636C75.2585 14.821 75.2677 14.7784 75.289 14.7419L76.918 11.7855C76.9852 11.6637 76.9394 11.5084 76.8174 11.4414C76.7808 11.4201 76.7381 11.411 76.6954 11.411H74.8772C74.7369 11.411 74.6271 11.2984 74.624 11.1583V9.13664C74.624 8.99659 74.7369 8.88698 74.8772 8.88394H82.2321C82.348 8.88394 82.4457 8.7926 82.4487 8.67386C82.4487 8.64646 82.4426 8.61601 82.4335 8.59165L82.3633 8.40288C82.3175 8.29328 82.3694 8.17149 82.4792 8.12582C82.5067 8.11364 82.5341 8.1106 82.5616 8.1106H85.7555C85.847 8.1106 85.9325 8.16235 85.9782 8.24152L86.265 8.75302C86.3077 8.83218 86.3931 8.88394 86.4846 8.88394H93.7449C93.8853 8.88394 93.9981 8.99659 93.9981 9.13664V11.1583C93.9981 11.2984 93.8853 11.411 93.7449 11.411H80.9692C80.8746 11.411 80.7862 11.4658 80.7434 11.548L80.4353 12.16C80.3652 12.2818 80.4079 12.434 80.5299 12.504C80.5696 12.5253 80.6153 12.5375 80.6611 12.5375L80.6641 12.5406ZM75.6887 15.8471H93.0037C93.144 15.8471 93.2569 15.9597 93.2569 16.0998V26.6008C93.2569 26.7378 93.147 26.8504 93.0098 26.8535C93.0098 26.8535 93.0067 26.8535 93.0037 26.8535H88.1716C88.0312 26.8535 87.9184 26.7408 87.9184 26.6008V25.0785C87.9184 24.9384 88.0312 24.8288 88.1716 24.8258H89.8585C89.9744 24.8258 90.0721 24.7344 90.0751 24.6157C90.0751 24.6157 90.0751 24.6126 90.0751 24.6096C90.0751 24.4939 89.9806 24.3965 89.8616 24.3965C89.8616 24.3965 89.8616 24.3965 89.8585 24.3965H78.8735C78.7362 24.3965 78.6233 24.5061 78.6203 24.6431C78.6203 24.6431 78.6203 24.6461 78.6203 24.6492V26.5977C78.6203 26.7378 78.5074 26.8505 78.3671 26.8505H75.6887C75.5514 26.8505 75.4385 26.7408 75.4355 26.6038C75.4355 26.6038 75.4355 26.6008 75.4355 26.5977V16.0967C75.4355 15.9567 75.5483 15.844 75.6887 15.844V15.8471ZM78.6081 18.4655V18.6421C78.6081 18.8065 78.7423 18.9404 78.907 18.9404H89.7579C89.9226 18.9404 90.0568 18.8065 90.0568 18.6421V18.4655C90.0568 18.3011 89.9226 18.1671 89.7579 18.1671H78.9192C78.7545 18.161 78.6142 18.2919 78.6081 18.4563C78.6081 18.4594 78.6081 18.4624 78.6081 18.4655ZM78.6081 21.5497V21.7263C78.6081 21.8907 78.7423 22.0247 78.907 22.0247H89.7579C89.9226 22.0247 90.0568 21.8907 90.0568 21.7263V21.5497C90.0568 21.3853 89.9226 21.2513 89.7579 21.2513H78.9192C78.7545 21.2452 78.6142 21.3762 78.6081 21.5406C78.6081 21.5436 78.6081 21.5467 78.6081 21.5497Z" fill="#2D2D2D"/>
<path d="M45.5091 22.8948C45.6525 22.8948 45.7684 23.0105 45.7714 23.1536C45.7714 23.181 45.7684 23.2084 45.7592 23.2328L44.7861 26.5423C44.7556 26.6519 44.6549 26.728 44.539 26.728H35.6588C35.5185 26.728 35.3995 26.6154 35.3995 26.4753C35.3995 26.4753 35.3995 26.4753 35.3995 26.4723V23.1536C35.3995 23.0105 35.2836 22.8948 35.1402 22.8948C35.0823 22.8948 35.0243 22.9161 34.9786 22.9527L30.177 26.8072C30.1312 26.8437 30.0732 26.865 30.0153 26.865H25.9977C25.8574 26.865 25.7384 26.7554 25.7354 26.6123C25.7354 26.5332 25.772 26.454 25.833 26.4053L30.1404 22.9496L33.4167 20.3221C33.4777 20.2734 33.5143 20.1972 33.5143 20.1211V18.9794C33.5143 18.8393 33.6302 18.7236 33.7705 18.7236H36.6655C36.8058 18.7236 36.9218 18.8393 36.9218 18.9794V20.791C36.9218 20.9341 37.0407 21.0467 37.1811 21.0467H38.4562C38.5996 21.0467 38.7155 21.1624 38.7155 21.3055V23.6621C38.7155 23.8021 38.8314 23.9178 38.9717 23.9178C38.9717 23.9178 38.9717 23.9178 38.9748 23.9178H42.1657C42.2755 23.9178 42.3731 23.8508 42.4097 23.7473L42.6507 23.0744C42.6843 22.9709 42.7849 22.9009 42.8948 22.9039H45.506V22.8979L45.5091 22.8948Z" fill="#2D2D2D"/>
<path d="M45.0919 8.71277V10.9019C45.0919 11.0419 44.9821 11.1546 44.8418 11.1607L41.4678 11.252L33.3716 11.4682L26.6543 11.6478H26.3401C26.1967 11.6509 26.0778 11.5382 26.0747 11.3951C26.0747 11.3951 26.0747 11.3921 26.0747 11.389V9.19991C26.0747 9.05986 26.1876 8.94721 26.3279 8.94112L44.8326 8.45093C44.9729 8.45093 45.0919 8.56054 45.0919 8.70363C45.0919 8.70668 45.0919 8.71277 45.0919 8.71581V8.71277Z" fill="#2D2D2D"/>
<path d="M44.7335 15.3876V21.6778C44.7335 21.8179 44.6207 21.9366 44.4803 21.9366C44.4803 21.9366 44.4773 21.9366 44.4742 21.9366H41.6738C41.5335 21.9366 41.4145 21.824 41.4145 21.6839C41.4145 21.6839 41.4145 21.6809 41.4145 21.6778V18.2648C41.4145 18.1247 41.3017 18.006 41.1613 18.006C41.1613 18.006 41.1583 18.006 41.1552 18.006H30.0207C29.8804 18.006 29.7644 18.1217 29.7644 18.2617C29.7644 18.2617 29.7644 18.2617 29.7644 18.2648V22.1041C29.7644 22.1893 29.7217 22.2716 29.6485 22.3203C29.6058 22.3477 29.554 22.3629 29.5021 22.3629H26.6864C26.543 22.3629 26.4302 22.2441 26.4302 22.1041V15.3906C26.4302 15.2506 26.543 15.1318 26.6834 15.1318C26.6834 15.1318 26.6834 15.1318 26.6864 15.1318H44.4742C44.6146 15.1318 44.7335 15.2445 44.7335 15.3845C44.7335 15.3845 44.7335 15.3876 44.7335 15.3906V15.3876Z" fill="#2D2D2D"/>
<path d="M44.4514 11.7854C44.5948 11.7854 44.7107 11.9011 44.7107 12.0442C44.7107 12.0838 44.7015 12.1234 44.6832 12.1599L43.5484 14.4343C43.5027 14.5225 43.4142 14.5773 43.3166 14.5804H40.2813C40.1379 14.5804 40.022 14.4647 40.022 14.3216C40.022 14.279 40.0311 14.2394 40.0525 14.1998L41.2605 11.9255C41.3063 11.8372 41.4008 11.7824 41.5015 11.7884H44.4544L44.4514 11.7854Z" fill="#2D2D2D"/>
<path d="M37.4492 14.1764C37.5071 14.3043 37.4492 14.4565 37.321 14.5144C37.2875 14.5296 37.2509 14.5357 37.2143 14.5357H34.2827C34.179 14.5357 34.0844 14.4748 34.0417 14.3804L33.1509 12.3588C33.093 12.2309 33.1509 12.0787 33.2791 12.0208C33.3126 12.0056 33.3492 11.9995 33.3858 11.9995H36.3174C36.4181 11.9995 36.5126 12.0574 36.5523 12.1517L37.4461 14.1764H37.4492Z" fill="#2D2D2D"/>
<path d="M30.7289 14.1639C30.7929 14.2918 30.738 14.4471 30.6099 14.511C30.5733 14.5293 30.5367 14.5384 30.494 14.5384H27.5746C27.477 14.5384 27.3855 14.4806 27.3428 14.3923L26.4276 12.4955C26.3635 12.3706 26.4123 12.2154 26.5374 12.1514C26.571 12.1332 26.6106 12.124 26.6503 12.124H29.53C29.6276 12.124 29.7191 12.1819 29.7618 12.2702L30.7228 14.167L30.7289 14.1639Z" fill="#2D2D2D"/>
<path d="M20.6866 16.0601V18.578C20.6866 18.7242 20.5677 18.8399 20.4212 18.8399C20.406 18.8399 20.3877 18.8399 20.3724 18.8338H20.3206L15.4915 16.7116C15.4244 16.6842 15.3512 16.6842 15.2872 16.7116L10.3696 18.8155H10.3178C10.1775 18.8429 10.0402 18.7516 10.0127 18.6115C10.0097 18.5963 10.0066 18.578 10.0066 18.5628V16.0936C10.0066 15.9931 10.0676 15.9018 10.1592 15.8591L13.0846 14.5591C13.1762 14.5164 13.2372 14.4251 13.2372 14.3246V12.8571C13.2372 12.8388 13.2372 12.8206 13.2372 12.8023C13.2677 12.6653 13.405 12.577 13.5422 12.6074C13.5514 12.6074 13.5636 12.6135 13.5727 12.6166L15.3482 13.3869C15.4153 13.4173 15.4946 13.4173 15.5617 13.3869L17.2822 12.574C17.3737 12.5313 17.4286 12.44 17.4317 12.3426V11.7458C17.4317 11.6058 17.3188 11.487 17.1785 11.487C17.1785 11.487 17.1754 11.487 17.1724 11.487H13.4141C13.286 11.487 13.1792 11.5814 13.1609 11.7062L12.9931 12.7597L12.8253 13.801C12.807 13.9258 12.7003 14.0202 12.5722 14.0202H10.0463C9.90596 14.0202 9.79309 13.9075 9.79004 13.7675C9.79004 13.7522 9.79004 13.737 9.79004 13.7248L10.6472 8.49107C10.6686 8.36624 10.7754 8.2749 10.9004 8.2749H13.6887L13.6459 8.78032H20.4334C20.5768 8.78032 20.6927 8.89601 20.6927 9.03911V13.8192C20.6927 13.9197 20.6348 14.008 20.5433 14.0506L19.0973 14.7478C18.9692 14.8057 18.9082 14.9549 18.9661 15.0858C18.9905 15.1436 19.0393 15.1893 19.0973 15.2167L20.5341 15.8196C20.6287 15.8591 20.6897 15.9535 20.6927 16.054L20.6866 16.0601Z" fill="#2D2D2D"/>
<path d="M20.5795 19.237V26.602C20.5795 26.742 20.4666 26.8608 20.3263 26.8608C20.3263 26.8608 20.3233 26.8608 20.3202 26.8608H10.354C10.2106 26.8608 10.0947 26.7451 10.0947 26.602V19.237C10.0947 19.0999 10.2015 18.9873 10.3388 18.9812H20.3568C20.488 18.9964 20.5856 19.106 20.5826 19.237H20.5795ZM17.3642 23.9075V21.9406C17.3642 21.7975 17.2452 21.6849 17.1049 21.6849H13.5815C13.4412 21.6849 13.3253 21.8006 13.3253 21.9406V23.9075C13.3253 24.0506 13.4381 24.1662 13.5815 24.1662H17.1049C17.2483 24.1662 17.3642 24.0506 17.3642 23.9075Z" fill="#2D2D2D"/>
<path d="M9.51458 23.3295V25.6617C9.51458 25.7927 9.41696 25.9053 9.28579 25.9175L0.292733 26.9984C0.149357 27.0136 0.0212331 26.9131 0.00292969 26.77C0.00292969 26.7609 0.00292969 26.7517 0.00292969 26.7426V24.4956C0.00292969 24.3647 0.106649 24.2551 0.237823 24.2429L0.622194 24.2034C0.756418 24.1942 0.857087 24.0816 0.854036 23.9476V18.3881C0.854036 18.248 0.969958 18.1323 1.11028 18.1323C1.11028 18.1323 1.11028 18.1323 1.11333 18.1323H3.47447C3.61479 18.1323 3.73072 18.248 3.73072 18.3881V23.4666C3.73072 23.6096 3.84969 23.7253 3.99306 23.7253C4.00222 23.7253 4.01137 23.7253 4.02052 23.7253L4.2188 23.701C4.34998 23.6858 4.4476 23.5762 4.4476 23.4452V17.0484C4.4476 16.9084 4.33168 16.7927 4.19135 16.7927C4.19135 16.7927 4.19135 16.7927 4.1883 16.7927H0.841834C0.698458 16.7927 0.582536 16.677 0.582536 16.5339V9.17798C0.582536 9.03489 0.698458 8.91919 0.841834 8.91919H9.20952C9.34985 8.91919 9.46577 9.03489 9.46577 9.17494C9.46577 9.17494 9.46577 9.17494 9.46577 9.17798V16.5247C9.46577 16.6678 9.3529 16.7835 9.20952 16.7835H7.65984C7.51951 16.7835 7.40359 16.8992 7.40359 17.0393V17.8766C7.40359 18.0197 7.51646 18.1354 7.65984 18.1354H9.16071C9.30104 18.1354 9.42001 18.248 9.42001 18.3881C9.42001 18.3881 9.42001 18.3881 9.42001 18.3911V20.5833C9.42001 20.7233 9.30409 20.839 9.16376 20.839C9.16376 20.839 9.16376 20.839 9.16071 20.839H7.65984C7.51646 20.839 7.40359 20.9578 7.40359 21.0978V23.0007C7.40359 23.1408 7.51646 23.2565 7.65679 23.2595C7.66899 23.2595 7.67814 23.2595 7.69034 23.2595L9.22172 23.0768C9.3651 23.0616 9.49323 23.1621 9.51153 23.3052C9.51153 23.3143 9.51153 23.3235 9.51153 23.3326L9.51458 23.3295ZM6.23828 13.8059V11.8755C6.23828 11.7355 6.12235 11.6198 5.98203 11.6198C5.98203 11.6198 5.98203 11.6198 5.97898 11.6198H3.98391C3.84054 11.6198 3.72461 11.7325 3.72461 11.8755V13.8059C3.72461 13.949 3.84054 14.0647 3.98391 14.0647H5.97898C6.1193 14.0647 6.23828 13.952 6.23828 13.812C6.23828 13.812 6.23828 13.8089 6.23828 13.8059Z" fill="#2D2D2D"/>
<path d="M0 0.125244H1.09515V4.07416H3.12072V5.08499H0V0.125244Z" fill="#2D2D2D"/>
<path d="M7.80966 3.17294C7.80966 3.45001 7.76695 3.72403 7.67543 3.98587C7.59307 4.2264 7.45884 4.44561 7.28191 4.62829C7.09583 4.81706 6.87313 4.96016 6.62299 5.0515C6.33319 5.1611 6.02813 5.21286 5.72002 5.20677C5.40887 5.21286 5.10076 5.1611 4.80791 5.0515C4.56081 4.96016 4.33507 4.81401 4.14898 4.62524C3.97205 4.44257 3.83783 4.22335 3.75546 3.98282C3.66394 3.72098 3.61819 3.44696 3.62124 3.1699V0.137423H4.72554V3.12727C4.72554 3.27342 4.74994 3.41956 4.79875 3.55353C4.84451 3.67836 4.91467 3.79405 5.00314 3.89148C5.09161 3.98891 5.19838 4.06503 5.3204 4.11679C5.44852 4.17159 5.5858 4.19899 5.72612 4.19899C5.8634 4.19899 6.00067 4.17159 6.1288 4.11679C6.24777 4.06503 6.35454 3.98891 6.44301 3.89148C6.53452 3.79405 6.60469 3.67836 6.64739 3.55353C6.69925 3.41652 6.72366 3.27037 6.72061 3.12727V0.125244H7.81576L7.80966 3.17294Z" fill="#2D2D2D"/>
<path d="M8.75 0.125244H10.4065L11.5504 3.3678L12.7127 0.125244H14.363V5.08194H13.2679V1.27917L11.95 5.08194H11.1172L9.86346 1.27917V5.08194H8.75305V0.125244H8.75Z" fill="#2D2D2D"/>
<path d="M15.3564 0.125244H16.4485V5.08194H15.3564V0.125244Z" fill="#2D2D2D"/>
<path d="M19.9053 1.34574C19.8107 1.23004 19.6856 1.14479 19.5453 1.09608C19.405 1.04127 19.2585 1.01387 19.1091 1.00778C19.0267 1.00778 18.9443 1.01996 18.862 1.03823C18.7796 1.0565 18.7003 1.0839 18.6271 1.12652C18.5539 1.16306 18.4929 1.21482 18.444 1.2818C18.3952 1.35183 18.3708 1.43708 18.3739 1.52233C18.3678 1.65629 18.4318 1.78417 18.5417 1.86028C18.6728 1.94858 18.8162 2.01861 18.9657 2.06123C19.1335 2.11908 19.3196 2.17693 19.5148 2.22869C19.707 2.28349 19.8931 2.3657 20.0639 2.46921C20.2347 2.57273 20.3811 2.71279 20.4879 2.88329C20.6069 3.08728 20.6649 3.32172 20.6557 3.55616C20.6618 3.80582 20.6069 4.05244 20.5001 4.28078C20.4025 4.47869 20.2591 4.65223 20.0822 4.78924C19.8992 4.9293 19.6917 5.03281 19.4721 5.09371C19.2341 5.16069 18.987 5.19114 18.7399 5.19114C18.4349 5.19723 18.1329 5.14851 17.8431 5.05413C17.5563 4.95061 17.294 4.78924 17.0713 4.57916L17.8492 3.72361C17.959 3.86976 18.1054 3.98545 18.2732 4.06157C18.4379 4.14377 18.6179 4.1864 18.804 4.1864C18.8955 4.1864 18.984 4.17422 19.0725 4.15291C19.1579 4.13464 19.2433 4.10419 19.3196 4.05852C19.3897 4.01894 19.4507 3.96414 19.4965 3.89716C19.5422 3.83018 19.5636 3.74797 19.5605 3.66881C19.5605 3.53484 19.4965 3.41001 19.3897 3.33085C19.2585 3.23342 19.1121 3.16035 18.9565 3.10859C18.7857 3.0477 18.5996 2.98681 18.3952 2.92591C18.2 2.87415 18.0109 2.79499 17.8339 2.69756C17.6631 2.59709 17.5136 2.45704 17.4008 2.29263C17.2757 2.09168 17.2147 1.85724 17.2299 1.61976C17.2238 1.37618 17.2787 1.13566 17.3885 0.919486C17.4923 0.724628 17.6356 0.551082 17.8095 0.417118C17.9895 0.274019 18.1939 0.167456 18.4135 0.103518C18.6515 0.0334912 18.8894 0 19.1304 0C19.408 0 19.6826 0.0395805 19.948 0.118742C20.2103 0.200947 20.4513 0.337957 20.6557 0.520636L19.9053 1.34878V1.34574Z" fill="#2D2D2D"/>
<path d="M22.4335 1.0904H21.0181V0.125244H24.9441V1.0904H23.5287V5.08194H22.4366V1.0904H22.4335Z" fill="#2D2D2D"/>
</svg>
